<svg width="24" height="24" viewBox="0 0 24 24" fill="none" xmlns="http://www.w3.org/2000/svg">
<path d="M4.72443 14.739V9.26114" stroke="black" stroke-linecap="round" stroke-linejoin="round"/>
<path d="M4.7244 12H3" stroke="black" stroke-linecap="round" stroke-linejoin="round"/>
<path d="M19.2756 14.739V9.26114" stroke="black" stroke-linecap="round" stroke-linejoin="round"/>
<path d="M19.2756 12H21" stroke="black" stroke-linecap="round" stroke-linejoin="round"/>
<path d="M16.0806 12H7.91943" stroke="black" stroke-linecap="round" stroke-linejoin="round"/>
<path d="M16.9032 16H16.905C17.3603 16 17.7294 15.6472 17.7294 15.212V8.78792C17.7294 8.35274 17.3603 7.99996 16.905 7.99996H16.9032C16.4479 7.99996 16.0788 8.35274 16.0788 8.78792V15.212C16.0788 15.6472 16.4479 16 16.9032 16Z" stroke="black" stroke-linecap="round" stroke-linejoin="round"/>
<path d="M7.09677 8H7.09497C6.63967 8 6.27057 8.35278 6.27057 8.78796V15.212C6.27057 15.6472 6.63967 16 7.09497 16H7.09677C7.55207 16 7.92117 15.6472 7.92117 15.212V8.78796C7.92117 8.35278 7.55207 8 7.09677 8Z" stroke="black" stroke-linecap="round" stroke-linejoin="round"/>
</svg>
